# xmcd CD database file
#
# Track frame offsets:
#	150
#	26046
#	47929
#	71905
#	101070
#	120587
#	149120
#	171010
#	183229
#	197740
#	221692
#	237251
#	262474
#	285562
#	308809
#
# Disc length: 4321 seconds
#
# Revision: 0
# Processed by: cddbd v1.5.1PL2 Copyright (c) Steve Scherf et al.
# Submitted via: CDex 1.70beta1
#
DISCID=f310df0f
DTITLE=Luigi Trussardi - L'amour dans l'âme
DYEAR=1998
DGENRE=Jazz
TTITLE0=The way you look tonight
TTITLE1=Trois petits points
TTITLE2=You don't know what love is
TTITLE3=Martine's smile
TTITLE4=Nicas's tempo
TTITLE5=Spring is here
TTITLE6=Little Niles
TTITLE7=Luisa
TTITLE8=Tolu
TTITLE9=Beautifull love
TTITLE10=Canto triste
TTITLE11=One single stap
TTITLE12=Nices's Queen
TTITLE13=One oscar for Pettiford
TTITLE14=Ohla Maria
EXTD=YEAR: 1998
EXTT0=
EXTT1=
EXTT2=
EXTT3=
EXTT4=
EXTT5=
EXTT6=
EXTT7=
EXTT8=
EXTT9=
EXTT10=
EXTT11=
EXTT12=
EXTT13=
EXTT14=
PLAYORDER=
